<?xml version="1.0" encoding="utf-8"?>
<!-- Generated by IcoMoon.io -->
<!DOCTYPE svg PUBLIC "-//W3C//DTD SVG 1.1//EN" "http://www.w3.org/Graphics/SVG/1.1/DTD/svg11.dtd">
<svg version="1.1" xmlns="http://www.w3.org/2000/svg" xmlns:xlink="http://www.w3.org/1999/xlink" width="32" height="32" viewBox="0 0 384 448">
<g id="icomoon-ignore">
</g>
<path fill="#000" stroke="#fff" stroke-width="20" d="M384 64v112c0 8.75-7.25 16-16 16h-112c-6.5 0-12.25-4-14.75-10-2.5-5.75-1.25-12.75 3.5-17.25l34.5-34.5c-23.5-21.75-54.5-34.25-87.25-34.25-70.5 0-128 57.5-128 128s57.5 128 128 128c39.75 0 76.5-18 101-49.75 1.25-1.75 3.5-2.75 5.75-3 2.25 0 4.5 0.75 6.25 2.25l34.25 34.5c3 2.75 3 7.5 0.5 10.75-36.5 44-90.5 69.25-147.75 69.25-105.75 0-192-86.25-192-192s86.25-192 192-192c49.25 0 97 19.75 132.25 53l32.5-32.25c4.5-4.75 11.5-6 17.5-3.5 5.75 2.5 9.75 8.25 9.75 14.75z"></path>
</svg>
